<?xml version="1.0" encoding="UTF-8" standalone="no"?>
<!DOCTYPE svg PUBLIC "-//W3C//DTD SVG 1.1//EN" "http://www.w3.org/Graphics/SVG/1.1/DTD/svg11.dtd">
<svg width="100%" height="100%" viewBox="0 0 73 74" version="1.1" xmlns="http://www.w3.org/2000/svg" xmlns:xlink="http://www.w3.org/1999/xlink" xml:space="preserve" xmlns:serif="http://www.serif.com/" style="fill-rule:evenodd;clip-rule:evenodd;">
    <g id="Artboard1" transform="matrix(1.17887,0,0,1.15991,-1.20285,-0.691047)">
        <rect x="1.02" y="0.596" width="61.924" height="62.942" style="fill:none;"/>
        <g transform="matrix(1.10241,0,0,1.12044,-3.6675,-4.07148)">
            <circle cx="32.338" cy="32.254" r="27.701" style="fill:white;"/>
        </g>
        <g transform="matrix(0.69392,0,0,0.716967,9.77665,9.84969)">
            <path d="M32,30L32,58" style="fill:none;fill-rule:nonzero;stroke:rgb(52,152,219);stroke-width:4px;"/>
            <path d="M32,30L59.369,16" style="fill:none;fill-rule:nonzero;stroke:rgb(52,152,219);stroke-width:4px;"/>
            <path d="M32,30L4.631,16" style="fill:none;fill-rule:nonzero;stroke:rgb(52,152,219);stroke-width:4px;"/>
            <g transform="matrix(1,0,0,1,-1.77636e-15,0.987596)">
                <circle cx="32" cy="30" r="8" style="fill:rgb(52,152,219);"/>
            </g>
            <g transform="matrix(1.01869,0,0,1.00207,0.710332,0.381737)">
                <circle cx="4.631" cy="16" r="6" style="fill:rgb(46,204,113);"/>
            </g>
            <g transform="matrix(1.01869,0,0,1,-0.617467,2.82589)">
                <circle cx="32" cy="58" r="6" style="fill:rgb(46,204,113);"/>
            </g>
            <g transform="matrix(1.01869,0,0,1,-1.83431,0.546275)">
                <circle cx="59.369" cy="16" r="6" style="fill:rgb(46,204,113);"/>
            </g>
        </g>
    </g>
</svg>
